s<svg width="318" height="73" viewBox="0 0 318 73" fill="none" xmlns="http://www.w3.org/2000/svg">
<path d="M52.7344 44.8516C52.5781 46.4141 51.7188 47.2604 50.1562 47.3906C49.4271 47.3906 48.7891 47.1562 48.2422 46.6875C47.7214 46.1927 47.4609 45.5807 47.4609 44.8516V26.4141C47.487 25.6849 47.7604 25.0859 48.2812 24.6172C48.8021 24.1224 49.4271 23.875 50.1562 23.875H66.5625C68.8542 23.9531 70.5859 24.4609 71.7578 25.3984C72.9297 26.3099 73.776 27.3516 74.2969 28.5234C74.8177 29.6953 75.0781 30.8802 75.0781 32.0781C75.0781 33.3281 74.8177 34.5391 74.2969 35.7109C73.8021 36.8828 72.9557 37.9375 71.7578 38.875C70.5859 39.7865 69.0885 40.2292 67.2656 40.2031H57.4219C56.6927 40.2031 56.0807 39.9427 55.5859 39.4219C55.0651 38.9271 54.8047 38.3151 54.8047 37.5859C54.8047 36.8568 55.0521 36.2448 55.5469 35.75C56.0677 35.2292 56.6927 34.9688 57.4219 34.9688H67.5C67.9948 34.9688 68.3984 34.8125 68.7109 34.5C69.0495 34.1615 69.2969 33.7839 69.4531 33.3672C69.6094 32.9245 69.6875 32.4818 69.6875 32.0391C69.6875 31.6224 69.6094 31.2057 69.4531 30.7891C69.2969 30.3464 69.0495 29.9688 68.7109 29.6562C68.3984 29.3177 67.9948 29.1354 67.5 29.1094H53.75C53.0729 29.1354 52.7344 29.474 52.7344 30.125V44.8516ZM78.0391 34.1094C78.5339 32.8594 79.3672 31.7396 80.5391 30.75C81.737 29.7344 83.2474 29.2135 85.0703 29.1875H99.7578C100.487 29.1875 101.099 29.4479 101.594 29.9688C102.115 30.4635 102.375 31.0755 102.375 31.8047C102.375 32.5339 102.115 33.1589 101.594 33.6797C101.099 34.1745 100.487 34.4219 99.7578 34.4219H84.9141C84.4193 34.4219 83.9896 34.6302 83.625 35.0469C83.2604 35.4375 82.974 35.9062 82.7656 36.4531C82.5833 37 82.4922 37.5208 82.4922 38.0156V44.8516C82.3359 46.4141 81.4766 47.2604 79.9141 47.3906C79.1849 47.3906 78.5469 47.1562 78 46.6875C77.4792 46.1927 77.2188 45.5807 77.2188 44.8516V38.0547H77.2578C77.2578 36.7005 77.5182 35.3854 78.0391 34.1094ZM126.078 44.8516V35.4375C126.078 34.7865 125.74 34.4479 125.062 34.4219H111.391C110.896 34.4479 110.466 34.6693 110.102 35.0859C109.737 35.4766 109.464 35.9453 109.281 36.4922C109.125 37.013 109.047 37.5469 109.047 38.0938C109.047 38.6146 109.125 39.1484 109.281 39.6953C109.464 40.2161 109.737 40.6849 110.102 41.1016C110.466 41.4922 110.896 41.6875 111.391 41.6875H121.391C122.12 41.6875 122.732 41.9479 123.227 42.4688C123.747 42.9635 124.008 43.5755 124.008 44.3047C124.008 45.0339 123.747 45.6458 123.227 46.1406C122.732 46.6615 122.12 46.9219 121.391 46.9219H111.547C109.724 46.8958 108.214 46.388 107.016 45.3984C105.844 44.3828 104.997 43.25 104.477 42C103.982 40.724 103.734 39.4089 103.734 38.0547C103.734 36.7526 103.995 35.4766 104.516 34.2266C105.036 32.9505 105.883 31.8177 107.055 30.8281C108.227 29.8125 109.958 29.2656 112.25 29.1875H128.656C129.385 29.1875 130.01 29.4349 130.531 29.9297C131.052 30.3984 131.326 30.9974 131.352 31.7266V44.8516C131.352 45.5807 131.078 46.1927 130.531 46.6875C130.01 47.1562 129.385 47.3906 128.656 47.3906C127.094 47.2604 126.234 46.4141 126.078 44.8516ZM142.672 28.6016C143.583 28.6016 144.469 28.7578 145.328 29.0703C146.214 29.3828 147.06 29.8385 147.867 30.4375C147.997 30.5677 148.141 30.6979 148.297 30.8281C148.427 30.6979 148.57 30.5677 148.727 30.4375C149.534 29.8385 150.367 29.3828 151.227 29.0703C152.112 28.7578 152.997 28.6016 153.883 28.6016C154.794 28.6016 155.68 28.7578 156.539 29.0703C157.424 29.3828 158.258 29.8516 159.039 30.4766C159.846 31.0755 160.549 31.8828 161.148 32.8984C161.773 33.9141 162.086 35.125 162.086 36.5312V44.8516C161.93 46.4141 161.07 47.2604 159.508 47.3906C158.779 47.3906 158.141 47.1562 157.594 46.6875C157.073 46.1927 156.812 45.5807 156.812 44.8516V36.8438C156.812 36.2188 156.695 35.6979 156.461 35.2812C156.227 34.8385 155.966 34.5 155.68 34.2656C155.393 34.0052 155.094 33.8229 154.781 33.7188C154.469 33.5885 154.156 33.5234 153.844 33.5234C153.531 33.5234 153.219 33.5885 152.906 33.7188C152.62 33.8229 152.333 34.0052 152.047 34.2656C151.76 34.5 151.5 34.8385 151.266 35.2812C151.031 35.6979 150.901 36.2188 150.875 36.8438V44.8516C150.719 46.4141 149.859 47.2604 148.297 47.3906C147.568 47.3906 146.93 47.1562 146.383 46.6875C145.862 46.1927 145.602 45.5807 145.602 44.8516V36.8438C145.602 36.2188 145.484 35.6979 145.25 35.2812C145.016 34.8385 144.755 34.5 144.469 34.2656C144.182 34.0052 143.883 33.8229 143.57 33.7188C143.258 33.5885 142.945 33.5234 142.633 33.5234C142.32 33.5234 142.008 33.5885 141.695 33.7188C141.409 33.8229 141.122 34.0052 140.836 34.2656C140.549 34.5 140.289 34.8385 140.055 35.2812C139.82 35.6979 139.69 36.2188 139.664 36.8438V44.8516C139.534 46.4141 138.688 47.2604 137.125 47.3906C136.396 47.3906 135.758 47.1562 135.211 46.6875C134.69 46.1927 134.43 45.5807 134.43 44.8516V36.5312C134.482 35.125 134.807 33.9141 135.406 32.8984C136.005 31.8828 136.708 31.0755 137.516 30.4766C138.323 29.8516 139.156 29.3828 140.016 29.0703C140.901 28.7578 141.786 28.6016 142.672 28.6016ZM177.391 47.5859C176.036 47.5859 174.695 47.4297 173.367 47.1172C172.065 46.8047 170.815 46.349 169.617 45.75C168.419 45.125 167.365 44.3047 166.453 43.2891C165.542 42.2734 165.047 41.0625 164.969 39.6562V38.0156V31.3359C164.969 30.6068 165.229 30.0078 165.75 29.5391C166.297 29.0443 166.935 28.7969 167.664 28.7969C169.227 28.9271 170.073 29.7734 170.203 31.3359V33.0547V38.4453C170.255 39.2526 170.555 39.9297 171.102 40.4766C171.674 40.9974 172.299 41.4141 172.977 41.7266C173.68 42.0391 174.396 42.2734 175.125 42.4297C175.88 42.5859 176.635 42.6641 177.391 42.6641C178.146 42.6641 178.888 42.5859 179.617 42.4297C180.372 42.2734 181.089 42.0391 181.766 41.7266C182.469 41.4141 183.094 40.9974 183.641 40.4766C184.214 39.9297 184.526 39.2526 184.578 38.4453V33.0547V31.3359C184.578 30.6068 184.839 30.0078 185.359 29.5391C185.906 29.0443 186.544 28.7969 187.273 28.7969C188.836 28.9271 189.695 29.7734 189.852 31.3359V38.0156V39.6562C189.773 41.0625 189.266 42.2734 188.328 43.2891C187.417 44.3047 186.362 45.125 185.164 45.75C183.966 46.349 182.703 46.8047 181.375 47.1172C180.073 47.4297 178.745 47.5859 177.391 47.5859ZM214.609 25.7891C214.766 24.2266 215.625 23.3802 217.188 23.25C217.917 23.25 218.542 23.4974 219.062 23.9922C219.609 24.4609 219.883 25.0599 219.883 25.7891V44.3828C219.857 45.112 219.583 45.724 219.062 46.2188C218.542 46.6875 217.917 46.9219 217.188 46.9219H200.781C198.49 46.8438 196.758 46.3099 195.586 45.3203C194.414 44.3047 193.568 43.1719 193.047 41.9219C192.526 40.6458 192.266 39.3568 192.266 38.0547C192.266 36.7005 192.513 35.3984 193.008 34.1484C193.529 32.8724 194.375 31.7396 195.547 30.75C196.745 29.7344 198.255 29.2135 200.078 29.1875H209.922C210.651 29.1875 211.263 29.4479 211.758 29.9688C212.279 30.4635 212.539 31.0755 212.539 31.8047C212.539 32.5339 212.279 33.1589 211.758 33.6797C211.263 34.1745 210.651 34.4219 209.922 34.4219H199.922C199.427 34.4219 198.997 34.6302 198.633 35.0469C198.268 35.4375 197.995 35.9062 197.812 36.4531C197.656 36.974 197.578 37.4948 197.578 38.0156C197.578 38.5625 197.656 39.1094 197.812 39.6562C197.995 40.1771 198.268 40.6458 198.633 41.0625C198.997 41.4531 199.427 41.6615 199.922 41.6875H213.594C214.271 41.6615 214.609 41.3229 214.609 40.6719V25.7891ZM225.734 28.7969C226.438 28.8229 227.036 29.0833 227.531 29.5781C228.026 30.0469 228.286 30.6328 228.312 31.3359V44.8516C228.156 46.4141 227.297 47.2604 225.734 47.3906C225.005 47.3906 224.367 47.1562 223.82 46.6875C223.299 46.1927 223.039 45.5807 223.039 44.8516V31.3359C223.065 30.6068 223.339 30.0078 223.859 29.5391C224.38 29.0443 225.005 28.7969 225.734 28.7969ZM222.453 23.7188C222.453 22.9896 222.766 22.3646 223.391 21.8438C224.016 21.3229 224.771 21.0625 225.656 21.0625C226.542 21.0625 227.297 21.3229 227.922 21.8438C228.547 22.3646 228.859 22.9896 228.859 23.7188C228.859 24.474 228.547 25.112 227.922 25.6328C227.297 26.1536 226.542 26.4141 225.656 26.4141C224.771 26.4141 224.016 26.1536 223.391 25.6328C222.766 25.112 222.453 24.474 222.453 23.7188ZM239.555 23.25C240.284 23.25 240.909 23.4974 241.43 23.9922C241.951 24.4609 242.224 25.0599 242.25 25.7891V29.1875H255.531C256.26 29.1875 256.885 29.4349 257.406 29.9297C257.901 30.4505 258.148 31.0755 258.148 31.8047C258.148 32.5339 257.888 33.1589 257.367 33.6797C256.872 34.1745 256.26 34.4219 255.531 34.4219H242.25V35.2031C242.224 36.2708 242.289 37.2604 242.445 38.1719C242.628 39.0573 243.044 39.8516 243.695 40.5547C244.346 41.2578 245.167 41.6354 246.156 41.6875H255.688C256.417 41.7135 257.016 41.987 257.484 42.5078C257.979 43.0286 258.227 43.6536 258.227 44.3828C258.201 45.0859 257.94 45.6849 257.445 46.1797C256.977 46.6484 256.391 46.8958 255.688 46.9219H244.828C243.005 46.8177 241.495 46.2057 240.297 45.0859C239.125 43.9401 238.279 42.5469 237.758 40.9062C237.263 39.2656 237.003 37.5208 236.977 35.6719V34.4219H232.484C231.755 34.4219 231.143 34.1615 230.648 33.6406C230.128 33.1458 229.867 32.5339 229.867 31.8047C229.867 31.0755 230.115 30.4635 230.609 29.9688C231.13 29.4479 231.755 29.1875 232.484 29.1875H236.977V25.7891C237.003 25.0859 237.263 24.5 237.758 24.0312C238.253 23.5365 238.852 23.276 239.555 23.25ZM262.672 23.25C263.375 23.276 263.974 23.5365 264.469 24.0312C264.964 24.5 265.224 25.0859 265.25 25.7891V29.1875H277.359C279.182 29.2135 280.68 29.7344 281.852 30.75C283.049 31.7396 283.896 32.8594 284.391 34.1094C284.911 35.3854 285.172 36.7005 285.172 38.0547H285.211V44.8516C285.211 45.5807 284.938 46.1927 284.391 46.6875C283.87 47.1562 283.245 47.3906 282.516 47.3906C280.953 47.2604 280.094 46.4141 279.938 44.8516V38.0156C279.938 37.5208 279.833 37 279.625 36.4531C279.443 35.9062 279.169 35.4375 278.805 35.0469C278.44 34.6302 278.01 34.4219 277.516 34.4219H265.25V44.9297C265.094 46.4922 264.234 47.3385 262.672 47.4688C261.943 47.4688 261.305 47.2344 260.758 46.7656C260.237 46.2708 259.977 45.6589 259.977 44.9297V25.7891C260.003 25.0599 260.276 24.4609 260.797 23.9922C261.318 23.4974 261.943 23.25 262.672 23.25ZM309.969 44.8516V35.4375C309.969 34.7865 309.63 34.4479 308.953 34.4219H295.281C294.786 34.4479 294.357 34.6693 293.992 35.0859C293.628 35.4766 293.354 35.9453 293.172 36.4922C293.016 37.013 292.938 37.5469 292.938 38.0938C292.938 38.6146 293.016 39.1484 293.172 39.6953C293.354 40.2161 293.628 40.6849 293.992 41.1016C294.357 41.4922 294.786 41.6875 295.281 41.6875H305.281C306.01 41.6875 306.622 41.9479 307.117 42.4688C307.638 42.9635 307.898 43.5755 307.898 44.3047C307.898 45.0339 307.638 45.6458 307.117 46.1406C306.622 46.6615 306.01 46.9219 305.281 46.9219H295.438C293.615 46.8958 292.104 46.388 290.906 45.3984C289.734 44.3828 288.888 43.25 288.367 42C287.872 40.724 287.625 39.4089 287.625 38.0547C287.625 36.7526 287.885 35.4766 288.406 34.2266C288.927 32.9505 289.773 31.8177 290.945 30.8281C292.117 29.8125 293.849 29.2656 296.141 29.1875H312.547C313.276 29.1875 313.901 29.4349 314.422 29.9297C314.943 30.3984 315.216 30.9974 315.242 31.7266V44.8516C315.242 45.5807 314.969 46.1927 314.422 46.6875C313.901 47.1562 313.276 47.3906 312.547 47.3906C310.984 47.2604 310.125 46.4141 309.969 44.8516Z" fill="black"/>
<path d="M33.9205 14.3636H39.2045V43.2557C39.2045 46.2386 38.5014 48.902 37.0952 51.2457C35.7031 53.5753 33.7358 55.4148 31.1932 56.7642C28.6506 58.0994 25.6676 58.767 22.2443 58.767C18.821 58.767 15.8381 58.0994 13.2955 56.7642C10.7528 55.4148 8.77841 53.5753 7.37216 51.2457C5.98011 48.902 5.28409 46.2386 5.28409 43.2557V14.3636H10.5682V42.8295C10.5682 44.9602 11.0369 46.8565 11.9744 48.5185C12.9119 50.1662 14.2472 51.4659 15.9801 52.4176C17.7273 53.3551 19.8153 53.8239 22.2443 53.8239C24.6733 53.8239 26.7614 53.3551 28.5085 52.4176C30.2557 51.4659 31.5909 50.1662 32.5142 48.5185C33.4517 46.8565 33.9205 44.9602 33.9205 42.8295V14.3636Z" fill="url(#paint0_linear_365_755)"/>
<path d="M24 39C24 38.1716 23.3284 37.5 22.5 37.5C21.6716 37.5 21 38.1716 21 39L24 39ZM21 39L21 58L24 58L24 39L21 39Z" fill="black" fill-opacity="0.7"/>
<line x1="7.41421" y1="16.5858" x2="37.4142" y2="46.5858" stroke="black" stroke-opacity="0.8" stroke-width="4"/>
<line x1="7.58579" y1="46.5858" x2="37.5858" y2="16.5858" stroke="black" stroke-opacity="0.8" stroke-width="4"/>
<path d="M42.8906 47.3281C42.2656 47.3281 41.7422 47.1094 41.3203 46.6719C40.9141 46.2344 40.7109 45.6875 40.7109 45.0312C40.7109 44.375 40.9141 43.8281 41.3203 43.3906C41.7422 42.9531 42.2656 42.7344 42.8906 42.7344C43.5156 42.7344 44.0391 42.9531 44.4609 43.3906C44.8828 43.8281 45.0938 44.375 45.0938 45.0312C45.0938 45.6875 44.8828 46.2344 44.4609 46.6719C44.0391 47.1094 43.5156 47.3281 42.8906 47.3281Z" fill="black"/>
<defs>
<linearGradient id="paint0_linear_365_755" x1="25.5" y1="58" x2="22.5" y2="73" gradientUnits="userSpaceOnUse">
<stop/>
<stop offset="0.9999" stop-color="#363636"/>
<stop offset="1" stop-color="#666666"/>
</linearGradient>
</defs>
</svg>
